<?xml version="1.0" encoding="UTF-8"?>
<svg width="70px" height="70px" viewBox="-8.78 0 70 70" xmlns="http://www.w3.org/2000/svg" xmlns:cc="http://creativecommons.org/ns#" xmlns:dc="http://purl.org/dc/elements/1.1/" xmlns:rdf="http://www.w3.org/1999/02/22-rdf-syntax-ns#">
<metadata>
<rdf:RDF>
<cc:Work>
<dc:subject>Data</dc:subject>
<dc:identifier>sql-database-generic</dc:identifier>
<dc:title>SQL Database (Generic)</dc:title>
<dc:format>image/svg+xml</dc:format>
<dc:publisher>Amido Limited</dc:publisher>
<dc:creator>Richard Slater</dc:creator>
<dc:type rdf:resource="http://purl.org/dc/dcmitype/StillImage"/>
</cc:Work>
</rdf:RDF>
</metadata>
<path transform="translate(-830.91 -943.98)" d="m852.97 1013.9c-6.5524-0.4723-13.029-2.1216-17-4.3296-2.2623-1.2576-3.9859-2.8032-4.6622-4.1807l-0.4024-0.8196v-25.708-25.708l0.31843-0.6465c1.423-2.889 5.9643-5.4935 12.304-7.0562 2.152-0.5305 5.2586-1.0588 7.793-1.3252 2.588-0.2721 9.4476-0.2307 12.029 0.073 6.8612 0.8061 12.7 2.6108 16.298 5.0377 1.3876 0.9359 2.8114 2.4334 3.2937 3.4642l0.41358 0.8838-0.0354 25.63-0.0354 25.63-0.33195 0.6744c-0.18257 0.3709-0.73406 1.1007-1.2255 1.6216-2.9918 3.1715-9.4092 5.5176-17.827 6.5172-1.7157 0.2038-9.1692 0.3686-10.929 0.2417zm12.075-22.028c-0.0252-0.0657-1.0047-0.93831-2.1767-1.9392s-2.1814-1.8669-2.2431-1.9244c-0.0617-0.0575 0.15481-0.26106 0.48117-0.45237 0.32635-0.19131 0.95163-0.7235 1.3895-1.1826 1.2805-1.3427 1.8847-3.0013 1.8847-5.1739 0-2.1388-0.65162-3.8645-1.9567-5.1818-1.3153-1.3278-2.8255-1.8983-5.0249-1.8983-3.3901 0-5.9937 1.9781-6.8247 5.1851-0.28586 1.1031-0.28432 3.3321 3e-3 4.3102 0.74941 2.5514 2.7904 4.4043 5.3306 4.8395 0.8596 0.14724 0.97605 0.21071 1.5621 0.85144 0.34829 0.38078 1.063 1.1408 1.5883 1.689l0.95501 0.9967h2.5388c1.3963 0 2.5182-0.0537 2.493-0.11939zm-8.7065-7.1085c-0.61119-0.31868-0.84225-0.56599-1.1908-1.2745-0.26919-0.54724-0.31522-0.85851-0.31824-2.152-3e-3 -1.3143 0.0388-1.5983 0.31987-2.169 0.45985-0.9339 1.0936-1.376 2.0738-1.4469 1.3645-0.099 2.1522 0.5707 2.565 2.1801 0.50612 1.9732-0.0504 4.0711-1.2647 4.7673-0.63707 0.36527-1.5874 0.40659-2.185 0.095zm-11.253 3.6627c2.6618-0.5048 4.1728-2.0528 4.1728-4.275 0-1.9714-0.97548-3.12-3.6716-4.3236-1.5434-0.689-2.1024-1.1215-2.1024-1.6268 0-0.4188 0.53052-0.8777 1.1481-0.993 0.60302-0.1126 2.2024 0.1652 3.1468 0.5467l0.79167 0.3198v-1.7524-1.7525l-0.85923-0.1906c-0.53103-0.1178-1.6469-0.1885-2.9214-0.1849-1.8053 0-2.1588 0.044-2.8382 0.3138-1.9844 0.7878-2.9261 2.1298-2.9111 4.1485 0.0141 1.8898 1.0111 3.0686 3.4923 4.1291 1.464 0.62572 2.0508 1.1022 2.0508 1.6652 0 1.1965-1.9936 1.3438-4.1044 0.30315-0.57805-0.28498-1.0974-0.54137-1.1541-0.56976-0.0567-0.0284-0.10311 0.79023-0.10311 1.8192 0 1.8624 2e-3 1.8714 0.33919 1.9997 1.2698 0.48278 4.0763 0.69787 5.5238 0.42335zm30.431-1.7277v-1.581h-2.4058-2.4058v-5.4304-5.4303h-2.1309-2.1309v7.0113 7.0113h4.5367 4.5367v-1.581zm-14.847-27.705c4.2345-0.2937 7.4086-0.8482 10.202-1.7821 2.7826-0.9304 4.4264-2.0562 4.7941-3.2834 0.14166-0.4729 0.13146-0.6523-0.0665-1.1708-0.88775-2.3245-5.8469-4.1104-13.425-4.8345-3.2415-0.3098-9.1367-0.2094-12.227 0.2081-4.716 0.6372-8.5433 1.8208-10.245 3.1683-3.4425 2.726 0.19793 5.7242 8.664 7.1354 3.6708 0.6119 8.4267 0.828 12.304 0.559z" fill="#00bcf2"/>
</svg>
